<svg width="32" height="32" viewBox="0 0 32 32" fill="none" xmlns="http://www.w3.org/2000/svg">
<rect x="0.1" y="0.1" width="31.8" height="31.8" rx="15.9" fill="#21409A"/>
<rect x="0.1" y="0.1" width="31.8" height="31.8" rx="15.9" stroke="#21409A" stroke-width="0.2"/>
<path d="M23.1332 15.6231C21.7835 15.6231 20.7266 16.8218 20.6854 18.3042C20.6122 20.8572 24.0162 21.7402 25.1326 20.331V19.2467C25.1326 19.2467 24.7803 19.8598 23.4031 19.8598C22.026 19.8598 21.9802 18.8349 21.9802 18.8349H25.5306C25.5626 18.661 25.5809 18.4826 25.5809 18.2996C25.5764 16.8218 24.4829 15.6231 23.1332 15.6231ZM21.9619 17.9336C22.1083 17.3617 22.5933 16.9453 23.1652 16.9453C23.7417 16.9453 24.2267 17.3662 24.3685 17.9336H21.9619ZM5.51838 16.3826C5.14321 15.9616 4.64908 15.7054 4.10462 15.7054C2.94251 15.7054 2 16.8813 2 18.3362C2 19.7866 2.94251 20.967 4.1092 20.967C4.65366 20.967 5.14779 20.7108 5.52296 20.2898V20.935H6.87724V15.7329H5.51838V16.3826ZM4.51182 19.8003C3.91704 19.8003 3.43206 19.1552 3.43206 18.3591C3.43206 17.563 3.91704 16.9179 4.51182 16.9179C5.10661 16.9179 5.59159 17.563 5.59159 18.3591C5.58701 19.1552 5.10661 19.8003 4.51182 19.8003ZM14.5591 20.331V17.6682V16.9179C14.5591 16.9179 14.4722 15.6963 13.2003 15.6963C11.9283 15.6963 11.6538 16.4054 11.6538 16.4054C11.6538 16.4054 11.2832 15.6322 10.3178 15.6322C9.52174 15.6322 9.09624 16.0943 8.96814 16.259V15.7054H7.64131V20.9167H8.96814V17.5172C9.05049 17.3068 9.27926 16.8904 9.75508 16.8904C10.2767 16.8904 10.4322 17.3205 10.4643 17.5767V20.3219C10.5146 20.5827 10.6656 20.7657 10.8531 20.9167H12.18C11.9695 20.7428 11.8368 20.5506 11.7911 20.331V17.7643C11.7911 17.7643 11.7499 16.9362 12.5414 16.895C13.1133 16.8675 13.2186 17.3891 13.2323 17.6774V17.8329C13.2323 17.8512 13.2323 17.8604 13.2323 17.8604V20.3173C13.2826 20.5781 13.4336 20.7611 13.6212 20.9121H14.948C14.7376 20.7428 14.6003 20.5506 14.5591 20.331ZM18.2331 15.7054C17.6886 15.7054 17.1945 15.9616 16.8193 16.3826V14.127H15.465V20.935H16.8193V20.2853C17.1945 20.7062 17.6886 20.9624 18.2331 20.9624C19.3952 20.9624 20.3423 19.7866 20.3423 18.3316C20.3377 16.8813 19.3952 15.7054 18.2331 15.7054ZM17.8304 19.8003C17.2357 19.8003 16.7507 19.1552 16.7507 18.3591C16.7507 17.563 17.2357 16.9179 17.8304 16.9179C18.4252 16.9179 18.9102 17.563 18.9102 18.3591C18.9056 19.1552 18.4252 19.8003 17.8304 19.8003ZM28.7425 15.71L27.7633 19.3794L26.7797 15.71H25.2103L26.9489 20.9212H28.4405L30.2752 15.71H28.7425Z" fill="white"/>
<path d="M9.2386 12.2281C9.23403 12.2189 9.23403 12.2098 9.22945 12.2052C9.12422 12.3242 9.00984 12.3974 8.86343 12.4431C8.71245 12.4889 8.58434 12.4889 8.48368 12.4385C8.3693 12.3836 8.28695 12.2693 8.23204 12.1C8.17714 11.9261 8.18172 11.7797 8.24119 11.6699C8.2961 11.5738 8.39218 11.5052 8.52486 11.4594C8.62552 11.4274 8.75363 11.4091 8.87716 11.4091L8.77193 11.1392C8.7582 11.1392 8.7399 11.1392 8.72617 11.1392C8.60722 11.1392 8.48826 11.1575 8.3693 11.1941C7.8889 11.345 7.67844 11.7568 7.82942 12.2326C7.90262 12.4568 8.02616 12.6307 8.19544 12.7314C8.37388 12.8412 8.59349 12.8549 8.82683 12.7817C9.01899 12.7222 9.1471 12.6215 9.20658 12.4889C9.26148 12.3882 9.2569 12.283 9.2386 12.2281Z" fill="white"/>
<path d="M11.0873 12.1687L11.0324 11.8668L10.2592 12.0544L10.1769 11.7158H10.1814L10.7762 11.5694L10.703 11.272L10.0991 11.4184L10.0213 11.089H10.0259L10.7762 10.9014L10.703 10.604L9.56836 10.8831L9.95268 12.4478L11.0873 12.1687Z" fill="white"/>
<path d="M12.8296 11.4413C12.7198 11.3269 12.6054 11.208 12.4727 11.1805L12.4544 11.1759L12.4727 11.1714C12.6786 11.0981 12.7884 10.906 12.7518 10.691C12.7381 10.604 12.6924 10.4851 12.5688 10.4073C12.4499 10.3295 12.2806 10.3066 12.0701 10.3478L11.457 10.4576L11.7361 12.0452L12.1204 11.9766L11.8917 10.691L12.0564 10.6635C12.2348 10.6315 12.3401 10.691 12.3675 10.8419C12.4087 11.0798 12.1662 11.1622 12.0701 11.1942C12.1845 11.2537 12.2852 11.391 12.3858 11.5236C12.4407 11.5969 12.4956 11.6746 12.5551 11.7341C12.6466 11.8302 12.7473 11.8897 12.9257 11.8576C12.976 11.8485 13.1453 11.8119 13.2185 11.7112C13.1316 11.7112 13.0492 11.6655 12.9394 11.5648C12.9028 11.5191 12.8662 11.4779 12.8296 11.4413Z" fill="white"/>
<path d="M14.1614 11.3908L13.713 10.1463L13.2646 10.1921L13.9189 11.7431L14.4359 11.6836L14.7608 10.0273L14.349 10.0731L14.1614 11.3908Z" fill="white"/>
<path d="M16.5729 11.304L15.7768 11.3131L15.7723 10.9654L16.3899 10.9562L16.3853 10.6497L15.7677 10.6588L15.7631 10.3157H15.7677L16.5409 10.3065L16.5363 10L15.3696 10.0137L15.3925 11.6242L16.5775 11.6105L16.5729 11.304Z" fill="white"/>
<path d="M17.282 11.382C17.2225 11.382 17.1493 11.3591 17.0898 11.3317C17.0898 11.4232 17.1127 11.501 17.163 11.5604C17.2225 11.6291 17.3095 11.6657 17.4238 11.6702C17.5428 11.6748 17.648 11.6428 17.7167 11.5787C17.8036 11.4964 17.8493 11.3637 17.8585 11.167L17.9042 10.0506L17.5108 10.0369L17.465 11.1807C17.465 11.2813 17.4376 11.3866 17.282 11.382Z" fill="white"/>
<path d="M18.9518 10.1646L18.293 11.711L18.6727 11.7522L18.7917 11.4456H18.7962L19.2904 11.5005L19.3361 11.8254L19.7525 11.8711L19.4734 10.2195L18.9518 10.1646ZM19.24 11.1894L18.9061 11.1528L19.1577 10.5077L19.2492 11.1894H19.24Z" fill="white"/>
<path d="M21.5872 11.9446C21.5643 11.8988 21.5414 11.8485 21.5231 11.7982C21.459 11.6518 21.395 11.5008 21.2806 11.4276L21.2623 11.4184H21.2806C21.2852 11.4184 21.2852 11.4184 21.2898 11.4184C21.5048 11.4184 21.6695 11.2766 21.7107 11.0661C21.7244 10.9792 21.729 10.8511 21.6375 10.7321C21.5506 10.6177 21.3996 10.54 21.1937 10.4988L20.576 10.3936L20.2832 11.9766L20.6629 12.0452L20.8963 10.7642L21.061 10.7962C21.2394 10.8282 21.3172 10.9197 21.2898 11.0707C21.244 11.3086 20.9924 11.304 20.8871 11.2949C20.9741 11.391 21.0198 11.5557 21.0656 11.7112C21.093 11.7982 21.1159 11.8942 21.1479 11.9674C21.2028 12.091 21.2715 12.1779 21.4545 12.2099C21.5048 12.2191 21.6787 12.242 21.7839 12.1733C21.7153 12.1459 21.6512 12.0773 21.5872 11.9446Z" fill="white"/>
<path d="M22.591 10.8123L22.2124 12.3777L22.5904 12.4691L22.969 10.9037L22.591 10.8123Z" fill="white"/>
<path d="M23.4078 12.7178L23.5817 12.4388H23.5863L24.0621 12.5897L24.0438 12.9146L24.4418 13.0381L24.4876 11.3636L23.9889 11.208L23.0464 12.5989L23.4078 12.7178ZM23.7556 12.1642L24.1216 11.5878L24.0758 12.274L23.751 12.1734L23.7556 12.1642Z" fill="white"/>
</svg>
