<svg width="32" height="32" viewBox="0 0 32 32" fill="none" xmlns="http://www.w3.org/2000/svg">
<rect width="32" height="32" rx="16" fill="#1E1E1E"/>
<g clip-path="url(#clip0_6033_1032)">
<path d="M16 16.5001C16 15.4834 16.4214 14.5084 17.1716 13.7895C17.9217 13.0706 18.9391 12.6667 20 12.6667C21.0609 12.6667 22.0783 13.0706 22.8284 13.7895C23.5786 14.5084 24 15.4834 24 16.5001C24 17.5167 23.5786 18.4918 22.8284 19.2107C22.0783 19.9295 21.0609 20.3334 20 20.3334C18.9391 20.3334 17.9217 19.9295 17.1716 19.2107C16.4214 18.4918 16 17.5167 16 16.5001V16.5001Z" fill="#1ABCFE"/>
<path d="M8 24.1666C8 23.1499 8.42143 22.1749 9.17157 21.456C9.92172 20.7371 10.9391 20.3333 12 20.3333H16V24.1666C16 25.1832 15.5786 26.1583 14.8284 26.8772C14.0783 27.5961 13.0609 27.9999 12 27.9999C10.9391 27.9999 9.92172 27.5961 9.17157 26.8772C8.42143 26.1583 8 25.1832 8 24.1666V24.1666Z" fill="#0ACF83"/>
<path d="M16 5V12.6667H20C21.0609 12.6667 22.0783 12.2628 22.8284 11.5439C23.5786 10.825 24 9.85 24 8.83333C24 7.81667 23.5786 6.84165 22.8284 6.12276C22.0783 5.40387 21.0609 5 20 5H16Z" fill="#FF7262"/>
<path d="M8 8.83333C8 9.85 8.42143 10.825 9.17157 11.5439C9.92172 12.2628 10.9391 12.6667 12 12.6667H16V5H12C10.9391 5 9.92172 5.40387 9.17157 6.12276C8.42143 6.84165 8 7.81667 8 8.83333V8.83333Z" fill="#F24E1E"/>
<path d="M8 16.5001C8 17.5167 8.42143 18.4918 9.17157 19.2107C9.92172 19.9295 10.9391 20.3334 12 20.3334H16V12.6667H12C10.9391 12.6667 9.92172 13.0706 9.17157 13.7895C8.42143 14.5084 8 15.4834 8 16.5001V16.5001Z" fill="#A259FF"/>
</g>
<defs>
<clipPath id="clip0_6033_1032">
<rect width="16" height="23" fill="white" transform="translate(8 5)"/>
</clipPath>
</defs>
</svg>
